<svg id="Layer_3" fill="#fff" enable-background="new 0 0 64 64" height="32" viewBox="0 0 64 64" width="32" xmlns="http://www.w3.org/2000/svg"><g><path d="m30 26h2v-2h1v2h2v-2c2.206 0 4-1.794 4-4 0-1.2-.542-2.266-1.382-3 .84-.734 1.382-1.8 1.382-3 0-2.206-1.794-4-4-4v-2h-2v2h-1v-2h-2v2h-4v2h2v10h-2v2h4zm5-14c1.103 0 2 .897 2 2s-.897 2-2 2h-5v-4zm-5 6h5c1.103 0 2 .897 2 2s-.897 2-2 2h-5z"/><path d="m22 17h-2c0 6.617 5.383 12 12 12v-2c-5.514 0-10-4.486-10-10z"/><path d="m42 17h2c0-6.617-5.383-12-12-12v2c5.514 0 10 4.486 10 10z"/><path d="m60 19h-12.13c.084-.659.13-1.327.13-2 0-8.822-7.178-16-16-16s-16 7.178-16 16c0 .673.046 1.341.13 2h-9.13c-3.309 0-6 2.691-6 6v33c0 2.757 2.243 5 5 5h52c2.757 0 5-2.243 5-5v-36c0-1.654-1.346-3-3-3zm0 2c.551 0 1 .449 1 1v7.184c-.314-.112-.648-.184-1-.184h-17.421c2.396-2.12 4.103-4.916 4.904-8zm-28-18c7.72 0 14 6.28 14 14 0 4.903-2.6 9.474-6.797 12h-7.203-7.203c-4.197-2.526-6.797-7.097-6.797-12 0-7.72 6.28-14 14-14zm-25 18h9.517c.801 3.084 2.508 5.88 4.904 8h-14.421c-2.206 0-4-1.794-4-4s1.794-4 4-4zm54 28h-8c-2.206 0-4-1.794-4-4s1.794-4 4-4h8zm0-10h-8c-3.309 0-6 2.691-6 6s2.691 6 6 6h8v7c0 1.654-1.346 3-3 3h-52c-1.654 0-3-1.346-3-3v-28.54c1.063.954 2.462 1.54 4 1.54h53c.551 0 1 .449 1 1z"/><path d="m50 45c0 1.654 1.346 3 3 3s3-1.346 3-3-1.346-3-3-3-3 1.346-3 3zm4 0c0 .551-.449 1-1 1s-1-.449-1-1 .449-1 1-1 1 .449 1 1z"/></g></svg>