<svg xmlns="http://www.w3.org/2000/svg" xmlns:xlink="http://www.w3.org/1999/xlink" width="209px" height="173px" viewBox="0 0 209 173" version="1.1">
    <g id="Page-1" stroke="none" stroke-width="1" fill="none" fill-rule="evenodd">
        <path d="M17.1513799,91.6602966 C17.0509318,89.9530373 17,88.2324665 17,86.5 C17,38.7273691 55.7273691,0 103.5,0 C122.105877,0 139.339726,5.87435217 153.448038,15.8695487 C149.624,17.8499054 144.477961,20.5148872 138.009921,23.8644941 L138.009897,23.8644814 C127.778169,18.2151439 116.014553,15 103.5,15 C64.0116404,15 32,47.0116404 32,86.5 C32,90.2770721 32.2928737,93.98574 32.8571504,97.604533 L208.472656,9.1875 L208.472656,27.859375 L0.7421875,131.958984 L0.7421875,113.773438 C13.0579427,109.298177 18.4772135,101.950846 17,91.7314453 C17.0502778,91.706132 17.1007378,91.6824157 17.1513799,91.6602966 Z M189.863775,81.6041186 C189.954189,83.2245743 190,84.8569373 190,86.5 C190,134.272631 151.272631,173 103.5,173 C85.271178,173 68.3593385,167.361327 54.4135288,157.733029 L70.2802189,149.830648 C80.2058867,155.047843 91.5081867,158 103.5,158 C142.98836,158 175,125.98836 175,86.5 C175,83.9111771 174.862414,81.3544892 174.594155,78.8368495 L0.7421875,165.958984 L0.7421875,147.773438 L208.472656,43.1875 L208.472656,61.859375 C196.157552,66.6536458 190,73.2135417 190,81.5390625 C189.954909,81.5618981 189.909501,81.5835835 189.863775,81.6041186 Z" id="Combined-Shape" fill="#000000"/>
    </g>
</svg>